<svg xmlns="http://www.w3.org/2000/svg" viewBox="0 0 32 32" fill="#fff" className="w-6 h-6">
  <path d="M16.002 3.2c-7.062 0-12.8 5.738-12.8 12.8 0 2.25.586 4.454 1.7 6.388l-1.788 6.475 6.625-1.738A12.742 12.742 0 0 0 16 28.8c7.063 0 12.8-5.738 12.8-12.8s-5.737-12.8-12.798-12.8zm0 23.063a10.156 10.156 0 0 1-5.2-1.425l-.369-.212-3.925 1.025 1.038-3.838-.238-.394a10.127 10.127 0 0 1-1.587-5.525c0-5.6 4.562-10.162 10.162-10.162 5.6 0 10.162 4.563 10.162 10.162s-4.563 10.163-10.163 10.163zm5.588-7.25c-.306-.15-1.8-.888-2.075-.987-.275-.1-.475-.15-.675.15-.2.287-.775.987-.95 1.187-.175.2-.35.212-.656.063-.306-.15-1.287-.475-2.45-1.513-.906-.806-1.513-1.8-1.688-2.1-.175-.3-.019-.463.131-.613.131-.132.3-.35.45-.525.15-.175.2-.3.3-.5.1-.2.05-.375-.025-.525-.075-.15-.675-1.637-.925-2.238-.244-.587-.494-.506-.675-.513l-.575-.013c-.2 0-.525.075-.8.375s-1.05 1.025-1.05 2.5c0 1.475 1.075 2.9 1.225 3.1.15.2 2.113 3.225 5.15 4.525.719.312 1.275.5 1.712.638.719.229 1.375.2 1.888.125.575-.087 1.8-.738 2.05-1.45.25-.712.25-1.325.175-1.45-.075-.125-.275-.2-.575-.35z"/>
</svg>
